<svg id="Layer_1" data-name="Layer 1" xmlns="http://www.w3.org/2000/svg" viewBox="0 0 2043.8 2043.8"><defs><style>.cls-1{fill:#5090dd;}.cls-2{fill:#4c8ccc;}.cls-3{fill:#efc360;stroke:#d6933a;}.cls-3,.cls-4,.cls-5,.cls-6{stroke-width:35px;}.cls-4{fill:#c18735;}.cls-4,.cls-5{stroke:#96652f;}.cls-5{fill:#fff;}.cls-6{fill:#b1daf6;stroke:#548faf;stroke-miterlimit:10;}.cls-7{fill:#96652f;}.cls-8{fill:#60411b;}</style></defs><path class="cls-1" d="M1026,737.24,1389,642l153.17,111.64L1974.08,1404A1018.87,1018.87,0,0,0,2048,1021.9C2048,457.52,1590.48,0,1026.1,0S4.2,457.52,4.2,1021.9c0,472.86,321.19,870.64,757.28,987.23l-348.9-594.27Z" transform="translate(-4.2)"/><path class="cls-2" d="M1974.08,1404,1515.41,642H1389l-363,95.24L331.69,1342.9l429.79,666.23a1023.1,1023.1,0,0,0,264.62,34.67C1455.36,2043.8,1822.75,1779.1,1974.08,1404Z" transform="translate(-4.2)"/><path class="cls-3" d="M1683.35,1266.22A1609.58,1609.58,0,0,0,1663,1103.79,1615.37,1615.37,0,0,0,1553.5,740.64c-10.16-23.34-21.07-46.72-37.29-66.34-22.66-27.4-54.3-45.77-86.38-61.09a703.56,703.56,0,0,0-201.45-61.28c-16-2.33-39.73,12.76-39.7,16.66S1377,647,1458.17,708.05c-136.44-70.45-289.59-106.21-443.07-107.54C861.63,601.84,708.48,637.6,572,708.05,653.26,647,841.49,572.49,841.53,568.59s-23.7-19-39.7-16.66a703.56,703.56,0,0,0-201.45,61.28C568.3,628.53,536.66,646.9,514,674.3c-16.22,19.62-27.13,43-37.29,66.34a1615.1,1615.1,0,0,0-129.85,525.58c-1.51,20.49-2.6,41.35,2.06,61.36,5.75,24.69,19.93,46.18,37.6,64,33.13,33.44,78.44,61.09,121.18,79.91a522.6,522.6,0,0,0,162.21,42.07c7.67.7,15.73,1.18,22.78-1.94s11.94-9.17,16.68-15.07l59-73.48a431.14,431.14,0,0,1-206.46-138.21c134.92,84.36,294.17,126,453.16,125.19,159,.86,318.25-40.83,453.17-125.19a431.14,431.14,0,0,1-206.46,138.21l59,73.48c4.74,5.9,9.76,12,16.68,15.07s15.11,2.64,22.78,1.94a522.6,522.6,0,0,0,162.21-42.07c42.74-18.82,88-46.47,121.18-79.91,17.67-17.84,31.85-39.33,37.6-64C1686,1307.57,1684.86,1286.71,1683.35,1266.22Z" transform="translate(-4.2)"/><path class="cls-4" d="M1021.09,1305.9c117.52,0,249.38-89,243.4-190.89H778.14C770,1213.91,903.58,1305.9,1021.09,1305.9Z" transform="translate(-4.2)"/><path class="cls-5" d="M777.7,1109c0,20.2,8,39.81,12.64,58.58l461.26-.65c4.6-18.77,12.89-37.73,12.89-57.93Z" transform="translate(-4.2)"/><path class="cls-6" d="M735.07,1233.23a82,82,0,1,1-112.71-119.08c32.89-31.13,132.6-74.92,193.07-69.85C819.88,1107.82,768,1202.11,735.07,1233.23Z" transform="translate(-4.2)"/><path class="cls-6" d="M1322.2,1234.85a82,82,0,1,0,90.94-136.43c-37.68-25.11-143.36-51.41-202.1-36.18C1217.4,1125.6,1284.53,1209.74,1322.2,1234.85Z" transform="translate(-4.2)"/><path class="cls-7" d="M997.6,941.33c9.71-18.36-6.18-51.91-15.87-67.08a198.15,198.15,0,0,0-46.11-49.88v0c-.64-.53-1.35-1-2-1.5-2.25-1.69-4.39-3.52-6.71-5.12l-.06.06A198.09,198.09,0,0,0,866.32,787c-17.24-5.18-53.84-11.35-68.86,3-12.53,12,11,17,18.64,19.35,34.86,10.79,67.95,16.59,96.95,39.27,27.48,21.52,41.74,50.6,60.86,80C978.27,935.37,989.51,956.64,997.6,941.33Z" transform="translate(-4.2)"/><path class="cls-7" d="M1042.59,941.33c-9.71-18.36,6.19-51.91,15.87-67.08a198.19,198.19,0,0,1,46.12-49.88l0,0c.65-.53,1.36-1,2-1.5,2.24-1.69,4.38-3.52,6.7-5.12l.07.06A197.92,197.92,0,0,1,1173.87,787c17.24-5.18,53.85-11.35,68.87,3,12.53,12-11,17-18.65,19.35-34.86,10.79-67.95,16.59-96.95,39.27-27.47,21.52-41.73,50.6-60.85,80C1061.92,935.37,1050.69,956.64,1042.59,941.33Z" transform="translate(-4.2)"/><ellipse class="cls-5" cx="810.13" cy="978.69" rx="120.3" ry="127.46"/><ellipse class="cls-5" cx="1223.86" cy="978.69" rx="120.3" ry="127.46"/><ellipse class="cls-8" cx="810.13" cy="978.69" rx="36.09" ry="38.24"/><ellipse class="cls-8" cx="1223.86" cy="978.69" rx="36.09" ry="38.24"/></svg>