<svg id="Layer_1" data-name="Layer 1" xmlns="http://www.w3.org/2000/svg" viewBox="0 0 2048 2048"><defs><style>.cls-1{fill:#55a7ad;}.cls-2{fill:#529ea0;}.cls-3{fill:#efc360;stroke:#d6933a;}.cls-3,.cls-4,.cls-5,.cls-6{stroke-width:35px;}.cls-4{fill:#c18735;}.cls-4,.cls-5{stroke:#96652f;}.cls-5{fill:#fff;}.cls-6{fill:#b1daf6;stroke:#548faf;stroke-miterlimit:10;}.cls-7{fill:#96652f;}.cls-8{fill:#60411b;}</style></defs><path class="cls-1" d="M1026.3,738.75l363.76-95.43,153.48,111.87,432.83,651.73A1020.87,1020.87,0,0,0,2050.44,1024c0-565.54-458.46-1024-1024-1024S2.44,458.46,2.44,1024c0,473.83,321.85,872.42,758.84,989.26L411.67,1417.77Z" transform="translate(-2.44)"/><path class="cls-2" d="M1976.37,1406.92l-459.61-763.6h-126.7L1026.3,738.75,330.6,1345.66l430.68,667.6A1025.47,1025.47,0,0,0,1026.44,2048C1456.59,2048,1824.73,1782.75,1976.37,1406.92Z" transform="translate(-2.44)"/><path class="cls-3" d="M1685,1268.82a1610.92,1610.92,0,0,0-20.37-162.77,1618.67,1618.67,0,0,0-109.74-363.89c-10.19-23.38-21.11-46.82-37.37-66.47-22.7-27.46-54.41-45.87-86.56-61.23a705,705,0,0,0-201.86-61.39c-16-2.34-39.81,12.78-39.78,16.69s188.65,78.55,270,139.75c-136.71-70.6-290.18-106.43-444-107.76-153.79,1.33-307.26,37.16-444,107.76,81.39-61.2,270-135.84,270-139.75s-23.74-19-39.77-16.69a705.09,705.09,0,0,0-201.87,61.39c-32.15,15.36-63.86,33.77-86.56,61.23-16.26,19.65-27.18,43.09-37.37,66.47a1618.35,1618.35,0,0,0-130.11,526.66c-1.51,20.54-2.6,41.43,2.07,61.48,5.76,24.75,20,46.28,37.68,64.16,33.19,33.5,78.59,61.22,121.42,80.08a523.58,523.58,0,0,0,162.54,42.14c7.69.71,15.77,1.19,22.83-1.93s12-9.2,16.71-15.11L768.22,1426a432,432,0,0,1-206.89-138.49c135.2,84.53,294.78,126.31,454.1,125.45,159.32.86,318.9-40.92,454.09-125.45A432,432,0,0,1,1262.64,1426l59.15,73.63c4.75,5.91,9.78,12,16.71,15.11s15.14,2.64,22.83,1.93a523.57,523.57,0,0,0,162.55-42.14c42.83-18.86,88.22-46.58,121.42-80.08,17.71-17.88,31.92-39.41,37.68-64.16C1687.65,1310.25,1686.56,1289.36,1685,1268.82Z" transform="translate(-2.44)"/><path class="cls-4" d="M1021.43,1308.58c117.75,0,249.89-89.15,243.9-191.28H778C769.77,1216.4,903.68,1308.58,1021.43,1308.58Z" transform="translate(-2.44)"/><path class="cls-5" d="M777.53,1111.23c0,20.24,8.05,39.89,12.67,58.7l462.21-.65c4.61-18.81,12.92-37.81,12.92-58Z" transform="translate(-2.44)"/><path class="cls-6" d="M734.82,1235.77a82.15,82.15,0,0,1-112.94-119.34c33-31.18,132.86-75.07,193.46-70C819.8,1110.09,767.77,1204.58,734.82,1235.77Z" transform="translate(-2.44)"/><path class="cls-6" d="M1323.16,1237.39a82.15,82.15,0,1,0,91.12-136.72c-37.76-25.16-143.66-51.51-202.52-36.25C1218.14,1127.91,1285.4,1212.23,1323.16,1237.39Z" transform="translate(-2.44)"/><path class="cls-7" d="M997.89,943.26c9.73-18.4-6.2-52-15.9-67.22a198.57,198.57,0,0,0-46.21-50v0c-.64-.53-1.36-1-2-1.5-2.25-1.69-4.39-3.53-6.72-5.14l-.06.07a198.42,198.42,0,0,0-60.66-30.85c-17.28-5.2-54-11.37-69,3-12.55,12,11,17,18.69,19.39,34.93,10.82,68.08,16.62,97.14,39.35,27.54,21.57,41.83,50.71,61,80.2C978.52,937.29,989.78,958.6,997.89,943.26Z" transform="translate(-2.44)"/><path class="cls-7" d="M1043,943.26c-9.73-18.4,6.2-52,15.9-67.22a198.57,198.57,0,0,1,46.21-50v0c.64-.53,1.35-1,2-1.5,2.26-1.69,4.4-3.53,6.73-5.14l.06.07a198.31,198.31,0,0,1,60.66-30.85c17.28-5.2,54-11.37,69,3,12.55,12-11,17-18.69,19.39-34.93,10.82-68.09,16.62-97.15,39.35-27.53,21.57-41.82,50.71-61,80.2C1062.34,937.29,1051.08,958.6,1043,943.26Z" transform="translate(-2.44)"/><ellipse class="cls-5" cx="811.8" cy="980.7" rx="120.54" ry="127.72"/><ellipse class="cls-5" cx="1226.37" cy="980.7" rx="120.54" ry="127.72"/><ellipse class="cls-8" cx="811.8" cy="980.7" rx="36.16" ry="38.32"/><ellipse class="cls-8" cx="1226.37" cy="980.7" rx="36.16" ry="38.32"/></svg>